# xmcd
#
# Track frame offsets:
# 150
# 8150
# 19424
# 28643
# 37233
# 47717
# 60139
# 71177
# 87153
# 98739
# 106700
#
# Disc length: 1592 seconds
#
#
# Revision: 0
# Processed by: cddbd v1.5.1PL2 Copyright (c) Steve Scherf et al.
# Submitted via: FreeRIP 2.60 
#
DISCID=8506360b
DTITLE=The Oak Ridge Boys - Bluegrass Favorites - Disc 3
DYEAR=2005
DGENRE=Bluegrass
TTITLE0=Someday
TTITLE1=When We All Get To Heaven
TTITLE2=One Of These Mornings
TTITLE3=Days Of Rejoicing
TTITLE4=Blessed Assurance
TTITLE5=Jesus The One Who Never Fails
TTITLE6=I'll Wake Up On The Other Side
TTITLE7=Farther Along
TTITLE8=God's Hand
TTITLE9=Amazing Grace
TTITLE10=Thank God, I'm Reborn
EXTD=
EXTT0=
EXTT1=
EXTT2=
EXTT3=
EXTT4=
EXTT5=
EXTT6=
EXTT7=
EXTT8=
EXTT9=
EXTT10=
PLAYORDER=
